<svg width="100" height="80" viewBox="0 0 100 80" fill="none" xmlns="http://www.w3.org/2000/svg">
<rect x="35.082" width="58" height="66" rx="8" transform="rotate(15 35.082 0)" fill="url(#paint0_linear_117_16427)"/>
<g filter="url(#filter0_b_117_16427)">
<path d="M37 53.8889C35.2278 53.8889 33.7112 53.2584 32.4502 51.9974C31.1893 50.7365 30.5577 49.2188 30.5556 47.4444C30.5534 45.6701 31.185 44.1535 32.4502 42.8947C33.7155 41.6359 35.2321 41.0043 37 41C38.7679 40.9957 40.2856 41.6273 41.553 42.8947C42.8204 44.1621 43.4509 45.6787 43.4444 47.4444C43.438 49.2102 42.8075 50.7279 41.553 51.9974C40.2985 53.267 38.7808 53.8975 37 53.8889ZM20.4056 31.3333H53.5944L60.1058 14.7302C60.6203 13.4183 59.653 12 58.2438 12H15.7562C14.347 12 13.3797 13.4183 13.8942 14.7302L20.4056 31.3333ZM25.4 70H48.6C53.4333 70 57.5417 68.3223 60.925 64.9669C64.3083 61.6115 66 57.4892 66 52.6C66 50.5593 65.6509 48.5722 64.9528 46.6389C64.2546 44.7056 63.2611 42.9602 61.9722 41.4028L53.5944 31.3333H20.4056L12.0278 41.4028C10.7389 42.9602 9.74537 44.7056 9.04722 46.6389C8.34907 48.5722 8 50.5593 8 52.6C8 57.487 9.67878 61.6093 13.0363 64.9669C16.3939 68.3244 20.5151 70.0021 25.4 70Z" fill="#FADABD" fill-opacity="0.8"/>
</g>
<defs>
<filter id="filter0_b_117_16427" x="-10.1818" y="-6.18182" width="94.3636" height="94.3636" filterUnits="userSpaceOnUse" color-interpolation-filters="sRGB">
<feFlood flood-opacity="0" result="BackgroundImageFix"/>
<feGaussianBlur in="BackgroundImageFix" stdDeviation="9.09091"/>
<feComposite in2="SourceAlpha" operator="in" result="effect1_backgroundBlur_117_16427"/>
<feBlend mode="normal" in="SourceGraphic" in2="effect1_backgroundBlur_117_16427" result="shape"/>
</filter>
<linearGradient id="paint0_linear_117_16427" x1="64.082" y1="0" x2="64.082" y2="66" gradientUnits="userSpaceOnUse">
<stop stop-color="#F5B579"/>
<stop offset="1" stop-color="#F29B4A"/>
</linearGradient>
</defs>
</svg>
