<svg width="100" height="80" viewBox="0 0 100 80" fill="none" xmlns="http://www.w3.org/2000/svg">
<rect x="35.082" width="58" height="66" rx="8" transform="rotate(15 35.082 0)" fill="url(#paint0_linear_117_16422)"/>
<g filter="url(#filter0_b_117_16422)">
<path d="M19.6 14C16.1108 14 12.755 15.3559 10.2268 17.7872C7.69865 20.2185 6.19146 23.5392 6.017 27.0625L6 27.75V52.25C6 55.7777 7.34108 59.1705 9.74586 61.7265C12.1506 64.2826 15.4351 65.8064 18.92 65.9828L19.6 66H60.4C63.8892 66 67.245 64.6441 69.7732 62.2128C72.3013 59.7815 73.8085 56.4608 73.983 52.9375L74 52.25V27.75C74 24.2223 72.6589 20.8295 70.2541 18.2735C67.8494 15.7174 64.5649 14.1936 61.08 14.0172L60.4 14H19.6ZM38.2762 31.1875L38.9222 31.2012C42.0774 31.38 44.7668 33.2053 46.8 36.165C48.704 33.3978 51.1792 31.6206 54.0726 31.2563L54.7458 31.1978L55.3034 31.1875L55.8474 31.2047C60.1994 31.5003 63.8 35.2575 63.8 39.7812C63.8 43.9956 59.6452 47.3816 55.4598 48.1928L54.9158 48.2822L59.4038 52.8197L59.686 53.1428C60.1486 53.7457 60.3997 54.487 60.3997 55.25C60.3997 56.013 60.1486 56.7543 59.686 57.3572L59.4038 57.6803L59.0842 57.9656C58.4879 58.4334 57.7547 58.6872 57 58.6872C56.2453 58.6872 55.5121 58.4334 54.9158 57.9656L54.5962 57.6803L46.8 49.8016L39.0038 57.6803L38.6842 57.9656C38.03 58.4783 37.2133 58.7321 36.3872 58.6794C35.5611 58.6267 34.7824 58.2712 34.1971 57.6794C33.6118 57.0877 33.2601 56.3004 33.208 55.4652C33.1559 54.63 33.4069 53.8042 33.914 53.1428L34.1962 52.8197L38.6842 48.2822C34.5056 47.7012 30.1774 44.4666 29.8238 40.3244L29.8 39.7812L29.817 39.2209C30.089 35.1338 33.285 31.7891 37.212 31.2597L37.7526 31.2047L38.2762 31.1875ZM38.3612 38.0625L38.0144 38.0934C37.3548 38.2309 36.7666 38.8153 36.6306 39.4891L36.6 39.7812L36.6408 39.8878L36.7564 40.0253C37.1984 40.4894 38.5006 41.2938 39.5988 41.4691L40 41.5H42.0468L41.87 41.1562L41.5708 40.62C40.6528 39.0938 39.6192 38.2275 38.674 38.0831L38.3612 38.0625ZM55.2388 38.0625L54.9532 38.0797L54.6336 38.1484C53.77 38.4131 52.8554 39.2484 52.0326 40.6166L51.7266 41.1562L51.5566 41.5H53.6L53.9604 41.4725C55.3136 41.2766 57 40.0975 57 39.7812C57 38.9906 56.3404 38.2481 55.5856 38.0934L55.2388 38.0625Z" fill="#EBD7FF" fill-opacity="0.8"/>
</g>
<defs>
<filter id="filter0_b_117_16422" x="-12.1818" y="-4.18182" width="104.364" height="88.3636" filterUnits="userSpaceOnUse" color-interpolation-filters="sRGB">
<feFlood flood-opacity="0" result="BackgroundImageFix"/>
<feGaussianBlur in="BackgroundImageFix" stdDeviation="9.09091"/>
<feComposite in2="SourceAlpha" operator="in" result="effect1_backgroundBlur_117_16422"/>
<feBlend mode="normal" in="SourceGraphic" in2="effect1_backgroundBlur_117_16422" result="shape"/>
</filter>
<linearGradient id="paint0_linear_117_16422" x1="64.082" y1="0" x2="64.082" y2="66" gradientUnits="userSpaceOnUse">
<stop stop-color="#C69DEF"/>
<stop offset="1" stop-color="#AF75E8"/>
</linearGradient>
</defs>
</svg>
